<?xml version="1.0" encoding="UTF-8"?>
<svg width="35px" height="35px" viewBox="0 0 35 35" version="1.1" xmlns="http://www.w3.org/2000/svg" xmlns:xlink="http://www.w3.org/1999/xlink">
    <title>Artboard</title>
    <g id="Artboard" stroke="none" stroke-width="1" fill="none" fill-rule="evenodd">
        <g id="icon-athletics-recreation" fill="#004B85" fill-rule="nonzero">
            <circle id="Athletics-and-Rec-icon" cx="17.5" cy="17.5" r="17.5"></circle>
        </g>
        <g id="shovel" transform="translate(6.000000, 6.000000)" fill="#FFFFFF" fill-rule="nonzero">
            <path d="M22.8019966,5.38906519 L17.5943617,0.197331434 C17.3304473,-0.0657771445 16.9024706,-0.0657771445 16.6385111,0.197331434 L15.3620161,1.46992882 C14.8050336,2.02516564 14.4982675,2.7634599 14.4982675,3.54869772 C14.4982675,4.10411423 14.6524166,4.63567711 14.9393565,5.09599359 L7.19125798,12.8204338 L5.52265374,11.1569245 C5.25878438,10.8937261 4.83080774,10.8938159 4.5668032,11.1569245 L1.67874942,14.0361149 C0.344037257,15.3668415 -0.211503278,17.1471032 0.0722373942,19.1845887 C0.28023278,20.6778433 0.868937225,21.7864751 0.893900276,21.8329695 C0.95680356,21.9500813 1.05309605,22.0460798 1.17061164,22.1088359 C1.21724839,22.1337677 2.32927571,22.7206296 3.82710384,22.927945 C4.17473911,22.9760565 4.51475929,23 4.84653356,23 C6.46512157,23 7.88359964,22.4306577 8.99130123,21.3262934 L11.879355,18.447103 C12.0061078,18.3207372 12.0773472,18.1493595 12.0773472,17.9706595 C12.0773472,17.7919595 12.0061529,17.6205369 11.879355,17.494216 L10.1402775,15.7604487 L17.8883309,8.03600846 C18.3500572,8.32207222 18.8832031,8.47575063 19.4403658,8.47575063 C20.2280086,8.47575063 20.9685641,8.16992116 21.5255015,7.61463942 L22.8019966,6.34204203 C23.0660011,6.07888853 23.0660011,5.65221869 22.8019966,5.38906519 Z M19.4403658,7.12804353 C19.0137409,7.12804353 18.61271,6.96237093 18.3110356,6.66166258 L16.3179117,4.67462455 C16.0162823,4.37387127 15.8501023,3.97401991 15.8501023,3.54874265 C15.8501023,3.12346539 16.0162823,2.72361402 16.3179117,2.42286074 L17.116504,1.62670686 L21.3682884,5.86550869 L20.569696,6.66166258 C20.2680216,6.96241585 19.8669005,7.12804353 19.4403658,7.12804353 Z M4.0519966,21.5983864 C3.11254776,21.4739972 2.33792717,21.1641697 1.99601447,21.010042 C1.84141478,20.6691734 1.53063832,19.896918 1.40586812,18.9602928 C1.19160944,17.3515885 1.60503181,16.0154713 2.63464502,14.9890019 L5.044751,12.5862999 L7.26722856,14.8019913 L5.5606841,16.503325 C5.29672461,16.7664335 5.29672461,17.1931034 5.5606841,17.4562569 C5.69266384,17.5878336 5.86564787,17.6536445 6.03858684,17.6536445 C6.21152581,17.6536445 6.3845549,17.5878336 6.51648958,17.4562569 L8.22303405,15.7549232 L10.4455116,17.9706146 L8.03540563,20.3733166 C7.00583748,21.3998309 5.66558298,21.811946 4.0519966,21.5983864 Z M8.14715358,13.7733208 L15.8399188,6.10399997 L16.8772372,7.138151 L9.18442693,14.8074269 L8.14715358,13.7733208 Z" id="Shape"></path>
        </g>
    </g>
</svg>